<svg width="18" height="18" viewBox="0 0 18 18" fill="none" xmlns="http://www.w3.org/2000/svg">
    <path d="M2.25 12.75H5.325C5.1125 12.5375 4.91575 12.3063 4.73475 12.0563C4.55375 11.8063 4.39425 11.5375 4.25625 11.25H2.25V12.75ZM9 12.75C10.0375 12.75 10.922 12.3842 11.6535 11.6528C12.385 10.9212 12.7505 10.037 12.75 9C12.75 7.9625 12.3842 7.07825 11.6528 6.34725C10.9213 5.61625 10.037 5.2505 9 5.25C7.9625 5.25 7.07825 5.61575 6.34725 6.34725C5.61625 7.07875 5.2505 7.963 5.25 9C5.25 10.0375 5.61575 10.922 6.34725 11.6535C7.07875 12.385 7.963 12.7505 9 12.75ZM13.7438 6.75H15.75V5.25H12.675C12.8875 5.4625 13.0845 5.69375 13.266 5.94375C13.4475 6.19375 13.6068 6.4625 13.7438 6.75ZM0.75 15V9H2.25V9.75H3.80625C3.78125 9.625 3.76575 9.503 3.75975 9.384C3.75375 9.265 3.7505 9.137 3.75 9C3.75 7.5375 4.2595 6.297 5.2785 5.2785C6.2975 4.26 7.538 3.7505 9 3.75H15.75V3H17.25V9H15.75V8.25H14.1937C14.2187 8.375 14.2345 8.497 14.241 8.616C14.2475 8.735 14.2505 8.863 14.25 9C14.25 10.4625 13.7408 11.7032 12.7222 12.7222C11.7037 13.7413 10.463 14.2505 9 14.25H2.25V15H0.75ZM9 11.25C8.5875 11.25 8.2345 11.1033 7.941 10.8098C7.6475 10.5163 7.5005 10.163 7.5 9.75C7.5 9.4625 7.5595 9.17825 7.6785 8.89725C7.7975 8.61625 8.0255 8.213 8.3625 7.6875L9 6.75L9.6375 7.6875C9.975 8.2125 10.2032 8.61575 10.3222 8.89725C10.4412 9.17875 10.5005 9.463 10.5 9.75C10.5 10.1625 10.3532 10.5157 10.0597 10.8098C9.76625 11.1038 9.413 11.2505 9 11.25Z" fill="white"/>
</svg>
