<svg width="20" height="12" viewBox="0 0 20 12" fill="none" xmlns="http://www.w3.org/2000/svg">
    <path d="M11.2503 2.25215C11.2503 2.08639 11.3162 1.92742 11.4334 1.81021C11.5506 1.693 11.7096 1.62715 11.8753 1.62715H19.3753C19.5411 1.62715 19.7 1.693 19.8173 1.81021C19.9345 1.92742 20.0003 2.08639 20.0003 2.25215C20.0003 2.41791 19.9345 2.57689 19.8173 2.6941C19.7 2.81131 19.5411 2.87715 19.3753 2.87715H11.8753C11.7096 2.87715 11.5506 2.81131 11.4334 2.6941C11.3162 2.57689 11.2503 2.41791 11.2503 2.25215ZM19.3753 5.37715H11.8753C11.7096 5.37715 11.5506 5.443 11.4334 5.56021C11.3162 5.67742 11.2503 5.83639 11.2503 6.00215C11.2503 6.16791 11.3162 6.32689 11.4334 6.4441C11.5506 6.56131 11.7096 6.62715 11.8753 6.62715H19.3753C19.5411 6.62715 19.7 6.56131 19.8173 6.4441C19.9345 6.32689 20.0003 6.16791 20.0003 6.00215C20.0003 5.83639 19.9345 5.67742 19.8173 5.56021C19.7 5.443 19.5411 5.37715 19.3753 5.37715ZM19.3753 9.12715H13.7503C13.5846 9.12715 13.4256 9.193 13.3084 9.31021C13.1912 9.42742 13.1253 9.58639 13.1253 9.75215C13.1253 9.91791 13.1912 10.0769 13.3084 10.1941C13.4256 10.3113 13.5846 10.3772 13.7503 10.3772H19.3753C19.5411 10.3772 19.7 10.3113 19.8173 10.1941C19.9345 10.0769 20.0003 9.91791 20.0003 9.75215C20.0003 9.58639 19.9345 9.42742 19.8173 9.31021C19.7 9.193 19.5411 9.12715 19.3753 9.12715ZM8.5386 7.0959C9.15888 6.61814 9.61407 5.9582 9.84033 5.20865C10.0666 4.4591 10.0526 3.65753 9.8002 2.91636C9.54785 2.17519 9.06985 1.53159 8.43322 1.07583C7.79659 0.620066 7.03327 0.375 6.25032 0.375C5.46736 0.375 4.70404 0.620066 4.06741 1.07583C3.43079 1.53159 2.95278 2.17519 2.70043 2.91636C2.44808 3.65753 2.43405 4.4591 2.6603 5.20865C2.88656 5.9582 3.34175 6.61814 3.96203 7.0959C2.3511 7.77794 1.08157 9.15059 0.644846 10.8459C0.620993 10.9383 0.618608 11.0349 0.637873 11.1284C0.657139 11.2218 0.697543 11.3096 0.755991 11.385C0.814438 11.4604 0.889376 11.5215 0.97506 11.5634C1.06075 11.6054 1.1549 11.6272 1.25032 11.6272H11.2503C11.3457 11.6272 11.4399 11.6054 11.5256 11.5634C11.6113 11.5215 11.6862 11.4604 11.7446 11.385C11.8031 11.3096 11.8435 11.2218 11.8628 11.1284C11.882 11.0349 11.8796 10.9383 11.8558 10.8459C11.4191 9.14981 10.1495 7.77715 8.5386 7.0959Z" fill="white"/>
</svg>
