<svg width="512" height="512" viewBox="0 0 512 512" fill="none" xmlns="http://www.w3.org/2000/svg">
    <g clip-path="url(#clip0_2_26)">
        <path d="M286.816 135.975C245.596 98.094 210 63.384 210 15C210 6.709 203.291 0 195 0C186.709 0 180 6.709 180 15C180 63.369 144.404 98.094 103.184 135.975C44.781 189.625 0 237.29 0 317C0 424.52 87.48 512 195 512C302.52 512 390 424.52 390 317C390 230.779 335.186 180.418 286.816 135.975ZM478.602 65.493C464.92 48.809 452 33.062 452 15C452 6.709 445.291 0 437 0C428.709 0 422 6.709 422 15C422 33.076 409.08 48.823 395.398 65.493C376.199 88.884 362 108.196 362 135C362 176.353 395.633 210 437 210C478.367 210 512 176.353 512 135C512 106.201 494.246 84.565 478.602 65.493Z" fill="url(#paint0_linear_2_26)"/>
        <path d="M195 182C120.557 182 60 242.557 60 317C60 391.443 120.557 452 195 452C269.443 452 330 391.443 330 317C330 242.557 269.443 182 195 182ZM225 332H195C186.709 332 180 325.291 180 317V257C180 248.709 186.709 242 195 242C203.291 242 210 248.709 210 257V302H225C233.291 302 240 308.709 240 317C240 325.291 233.291 332 225 332Z" fill="url(#paint1_linear_2_26)"/>
    </g>
    <defs>
        <linearGradient id="paint0_linear_2_26" x1="256" y1="512" x2="256" y2="0" gradientUnits="userSpaceOnUse">
            <stop stop-color="#0074FD"/>
            <stop offset="1" stop-color="#00FF94"/>
        </linearGradient>
        <linearGradient id="paint1_linear_2_26" x1="195" y1="452" x2="195" y2="182" gradientUnits="userSpaceOnUse">
            <stop stop-color="#9AFFE1"/>
            <stop offset="1" stop-color="#D5F2FF"/>
        </linearGradient>
        <clipPath id="clip0_2_26">
            <rect width="512" height="512" fill="white"/>
        </clipPath>
    </defs>
</svg>
