<svg width="390" height="302" viewBox="0 0 390 302" fill="none" xmlns="http://www.w3.org/2000/svg">
    <path d="M256.358 176.437C270.379 142.612 254.324 103.825 220.499 89.804C186.673 75.7833 147.886 91.8382 133.866 125.664C119.845 159.489 135.9 198.276 169.725 212.297C203.551 226.317 242.338 210.263 256.358 176.437Z" fill="#002285"/>
    <path d="M268.703 255.481C264.357 255.481 260.045 253.612 257.063 249.998C251.761 243.573 252.671 234.068 259.095 228.766C282.405 209.53 295.773 181.185 295.773 150.999C295.773 120.814 282.405 92.4694 259.095 73.2325C252.671 67.9309 251.761 58.4256 257.063 52.0009C262.363 45.5772 271.87 44.6663 278.294 49.9689C308.572 74.9558 325.937 111.781 325.937 150.999C325.937 190.218 308.572 227.043 278.294 252.03C275.483 254.351 272.083 255.481 268.703 255.481Z" fill="#002285"/>
    <path d="M124.029 256.576C120.799 256.576 117.544 255.543 114.794 253.41C82.5542 228.394 64.0634 190.669 64.0634 149.907C64.0634 110.688 81.4281 73.8629 111.705 48.876C118.129 43.5744 127.636 44.4843 132.936 50.908C138.238 57.3327 137.328 66.838 130.904 72.1396C107.594 91.3765 94.2262 119.722 94.2262 149.907C94.2262 181.28 108.462 210.319 133.284 229.579C139.865 234.685 141.06 244.159 135.955 250.739C132.984 254.57 128.531 256.576 124.029 256.576Z" fill="#002285"/>
    <path d="M315.83 297.72C311.733 297.72 307.651 296.061 304.675 292.792C299.066 286.634 299.513 277.095 305.672 271.487C339.839 240.375 359.435 196.048 359.435 149.869C359.435 104.176 341.136 61.7204 307.907 30.3238C301.854 24.6039 301.582 15.0584 307.302 9.00366C313.024 2.94997 322.568 2.6785 328.622 8.3994C347.672 26.3986 362.665 47.6393 373.183 71.5313C384.075 96.273 389.598 122.63 389.598 149.869C389.598 204.518 366.41 256.975 325.981 293.79C323.089 296.422 319.454 297.72 315.83 297.72Z" fill="#002285"/>
    <path d="M77.4487 301.602C73.9468 301.602 70.4288 300.389 67.5753 297.915C24.8868 260.901 0.402588 207.293 0.402588 150.837C0.402588 94.5868 24.738 41.108 67.1671 4.11224C73.445 -1.36232 82.9725 -0.7098 88.4461 5.5681C93.9196 11.846 93.2681 21.3735 86.9902 26.847C51.1315 58.1129 30.5655 103.306 30.5655 150.837C30.5655 198.542 51.2572 243.844 87.3351 275.126C93.628 280.582 94.3067 290.107 88.8492 296.401C85.8681 299.839 81.6695 301.602 77.4487 301.602Z" fill="#002285"/>
    <path d="M195.541 84.7165V217.257C231.84 216.964 261.283 187.355 261.283 150.986C261.283 114.618 231.841 85.0091 195.541 84.7165Z" fill="#002285"/>
</svg>
