<?xml version="1.0" encoding="UTF-8" standalone="no"?>
<!-- Created with Inkscape (http://www.inkscape.org/) -->

<svg
   version="1.1"
   id="svg1176"
   xml:space="preserve"
   width="682.66669"
   height="682.66669"
   viewBox="0 0 682.66669 682.66669"
   xmlns="http://www.w3.org/2000/svg"
   xmlns:svg="http://www.w3.org/2000/svg"><defs
     id="defs1180"><clipPath
       clipPathUnits="userSpaceOnUse"
       id="clipPath1190"><path
         d="M 0,512 H 512 V 0 H 0 Z"
         id="path1188" /></clipPath></defs><g
     id="g1182"
     transform="matrix(1.3333333,0,0,-1.3333333,0,682.66667)"><g
       id="g1184"><g
         id="g1186"
         clip-path="url(#clipPath1190)"><g
           id="g1192"
           transform="translate(497.9155,18.6284)"><path
             d="m 0,0 h -484.599 c -3.326,0 -6.024,2.697 -6.024,6.024 v 32.747 c 0,3.327 2.698,6.024 6.024,6.024 H 0 c 3.751,0 6.792,-3.041 6.792,-6.791 V 6.792 C 6.792,3.041 3.751,0 0,0"
             style="fill:#b4adb6;fill-opacity:1;fill-rule:nonzero;stroke:none"
             id="path1194" /></g><g
           id="g1196"
           transform="translate(497.9155,36.9604)"><path
             d="m 0,0 h -144.26 c -7.329,0 -13.271,5.942 -13.271,13.271 v 13.192 0 H -326.3 v 0 -13.192 C -326.3,5.942 -332.242,0 -339.571,0 h -145.028 c -3.326,0 -6.024,2.697 -6.024,6.024 v -18.332 c 0,-3.327 2.698,-6.024 6.024,-6.024 H 0 c 3.751,0 6.792,3.041 6.792,6.791 V 6.791 C 6.792,3.041 3.751,0 0,0"
             style="fill:#a79ba7;fill-opacity:1;fill-rule:nonzero;stroke:none"
             id="path1198" /></g><g
           id="g1200"
           transform="translate(299.8218,77.2002)"><path
             d="m 0,0 12.08,-2.962 c 4.98,-1.222 8.482,-5.686 8.482,-10.815 v -44.795 c 0,-6.149 -4.985,-11.135 -11.134,-11.135 H -97.071 c -6.15,0 -11.135,4.986 -11.135,11.135 v 44.795 c 0,5.129 3.502,9.593 8.482,10.815 L -87.644,0 c 2.734,0.67 4.656,3.121 4.656,5.936 V 160.104 H -4.656 V 5.936 C -4.656,3.121 -2.733,0.67 0,0"
             style="fill:#b4adb6;fill-opacity:1;fill-rule:nonzero;stroke:none"
             id="path1202" /></g><g
           id="g1204"
           transform="translate(295.166,222.0005)"><path
             d="m 0,0 v 15.304 h -78.332 v -154.169 c 0,-2.814 -1.922,-5.265 -4.656,-5.935 l -12.08,-2.963 c -4.98,-1.221 -8.482,-5.686 -8.482,-10.814 v -44.795 c 0,-6.149 4.985,-11.135 11.134,-11.135 h 16.541 v 40.626 c 0,5.13 3.504,9.595 8.486,10.815 l 0.186,0.046 c 9.714,2.378 16.546,11.085 16.546,21.086 0,3.694 2.995,6.689 6.689,6.689 H 0 v 62.589 h -49.721 c -0.517,0 -0.936,0.419 -0.936,0.936 0,4.647 3.83,8.343 8.476,8.258 1.003,-0.019 2.008,-0.028 3.015,-0.028 13.452,0 26.558,1.506 39.166,4.341 v 38.171 H -50.657 V 0 Z"
             style="fill:#a79ba7;fill-opacity:1;fill-rule:nonzero;stroke:none"
             id="path1206" /></g><g
           id="g1208"
           transform="translate(305.5186,139.3447)"><path
             d="m 0,0 h -99.037 c -6.295,0 -11.397,-5.103 -11.397,-11.397 v -19.795 c 0,-6.295 5.102,-11.397 11.397,-11.397 H 0 c 6.294,0 11.397,5.102 11.397,11.397 v 19.795 C 11.397,-5.103 6.294,0 0,0"
             style="fill:#fec265;fill-opacity:1;fill-rule:nonzero;stroke:none"
             id="path1210" /></g><g
           id="g1212"
           transform="translate(423.4414,336.9517)"><path
             d="m 0,0 c 0,-92.475 -74.966,-167.441 -167.441,-167.441 -92.476,0 -167.442,74.966 -167.442,167.441 0,92.475 74.966,167.441 167.442,167.441 C -74.966,167.441 0,92.475 0,0"
             style="fill:#cbc5cb;fill-opacity:1;fill-rule:nonzero;stroke:none"
             id="path1214" /></g><g
           id="g1216"
           transform="translate(136.7637,336.9517)"><path
             d="m 0,0 c 0,84.29 62.299,154.036 143.353,165.723 -7.872,1.134 -15.931,1.718 -24.117,1.718 C 26.761,167.441 -48.205,92.475 -48.205,0 c 0,-92.475 74.966,-167.441 167.441,-167.441 8.186,0 16.242,0.588 24.113,1.723 C 62.296,-154.031 0,-84.29 0,0"
             style="fill:#b4adb6;fill-opacity:1;fill-rule:nonzero;stroke:none"
             id="path1218" /></g><g
           id="g1220"
           transform="translate(256,199.5103)"><path
             d="m 0,0 c -75.786,0 -137.441,61.656 -137.441,137.441 0,75.786 61.655,137.442 137.441,137.442 75.786,0 137.441,-61.656 137.441,-137.442 C 137.441,61.656 75.786,0 0,0"
             style="fill:#f3f1f3;fill-opacity:1;fill-rule:nonzero;stroke:none"
             id="path1222" /></g><g
           id="g1224"
           transform="translate(185.1685,219.2026)"><path
             d="m 0,0 c -29.923,30.248 -48.405,71.842 -48.405,117.749 0,45.905 18.475,87.493 48.396,117.741 C -39.892,211.406 -66.61,167.642 -66.61,117.749 -66.61,67.856 -39.884,24.084 0,0"
             style="fill:#e2dee2;fill-opacity:1;fill-rule:nonzero;stroke:none"
             id="path1226" /></g><g
           id="g1228"
           transform="translate(256,312.7515)"><path
             d="m 0,0 c -13.344,0 -24.2,10.856 -24.2,24.2 0,13.344 10.856,24.2 24.2,24.2 13.344,0 24.2,-10.856 24.2,-24.2 C 24.2,10.856 13.344,0 0,0"
             style="fill:#cbc5cb;fill-opacity:1;fill-rule:nonzero;stroke:none"
             id="path1230" /></g><g
           id="g1232"
           transform="translate(134.5186,221.7236)"><path
             d="m 0,0 c 30.512,-32.157 73.653,-52.213 121.481,-52.213 92.476,0 167.442,74.966 167.442,167.441 0,92.475 -74.966,167.441 -167.442,167.441 -92.475,0 -167.441,-74.966 -167.441,-167.441 0,-33.094 9.605,-63.942 26.172,-89.918"
             style="fill:none;stroke:#000000;stroke-width:15;stroke-linecap:round;stroke-linejoin:round;stroke-miterlimit:10;stroke-dasharray:none;stroke-opacity:1"
             id="path1234" /></g><g
           id="g1236"
           transform="translate(367.1782,417.6572)"><path
             d="m 0,0 c -25.009,34.357 -65.526,56.736 -111.178,56.736 -75.786,0 -137.442,-61.656 -137.442,-137.442 0,-75.785 61.656,-137.441 137.442,-137.441 75.785,0 137.441,61.656 137.441,137.441 0,18.707 -3.763,36.551 -10.561,52.821"
             style="fill:none;stroke:#000000;stroke-width:15;stroke-linecap:round;stroke-linejoin:round;stroke-miterlimit:10;stroke-dasharray:none;stroke-opacity:1"
             id="path1238" /></g><g
           id="g1240"
           transform="translate(175.4687,335.1997)"><path
             d="M 0,0 H -23.222"
             style="fill:none;stroke:#000000;stroke-width:15;stroke-linecap:round;stroke-linejoin:round;stroke-miterlimit:10;stroke-dasharray:none;stroke-opacity:1"
             id="path1242" /></g><g
           id="g1244"
           transform="translate(197.8169,392.6567)"><path
             d="M 0,0 -14.75,14.75"
             style="fill:none;stroke:#000000;stroke-width:15;stroke-linecap:round;stroke-linejoin:round;stroke-miterlimit:10;stroke-dasharray:none;stroke-opacity:1"
             id="path1246" /></g><g
           id="g1248"
           transform="translate(256.248,417.4824)"><path
             d="M 0,0 V 23.222"
             style="fill:none;stroke:#000000;stroke-width:15;stroke-linecap:round;stroke-linejoin:round;stroke-miterlimit:10;stroke-dasharray:none;stroke-opacity:1"
             id="path1250" /></g><g
           id="g1252"
           transform="translate(311.7051,395.1348)"><path
             d="M 0,0 16.372,16.372"
             style="fill:none;stroke:#000000;stroke-width:15;stroke-linecap:round;stroke-linejoin:round;stroke-miterlimit:10;stroke-dasharray:none;stroke-opacity:1"
             id="path1254" /></g><g
           id="g1256"
           transform="translate(336.5312,338.7036)"><path
             d="M 0,0 H 23.222"
             style="fill:none;stroke:#000000;stroke-width:15;stroke-linecap:round;stroke-linejoin:round;stroke-miterlimit:10;stroke-dasharray:none;stroke-opacity:1"
             id="path1258" /></g><g
           id="g1260"
           transform="translate(314.1831,281.2466)"><path
             d="m 0,0 16.371,-16.372 c 18.065,18.68 29.199,44.101 29.199,72.077 0,57.21 -46.543,103.753 -103.753,103.753 -57.21,0 -103.753,-46.543 -103.753,-103.753 0,-29.234 12.157,-55.678 31.676,-74.554 l 16.372,16.371"
             style="fill:none;stroke:#000000;stroke-width:15;stroke-linecap:round;stroke-linejoin:round;stroke-miterlimit:10;stroke-dasharray:none;stroke-opacity:1"
             id="path1262" /></g><g
           id="g1264"
           transform="translate(256,312.7515)"><path
             d="m 0,0 c -13.344,0 -24.2,10.856 -24.2,24.2 0,13.344 10.856,24.2 24.2,24.2 13.344,0 24.2,-10.856 24.2,-24.2 C 24.2,10.856 13.344,0 0,0 Z"
             style="fill:none;stroke:#000000;stroke-width:15;stroke-linecap:round;stroke-linejoin:round;stroke-miterlimit:10;stroke-dasharray:none;stroke-opacity:1"
             id="path1266" /></g><g
           id="g1268"
           transform="translate(248.0581,314.0967)"><path
             d="M 0,0 -4.758,-13.327"
             style="fill:none;stroke:#000000;stroke-width:15;stroke-linecap:round;stroke-linejoin:round;stroke-miterlimit:10;stroke-dasharray:none;stroke-opacity:1"
             id="path1270" /></g><g
           id="g1272"
           transform="translate(276.4731,393.6865)"><path
             d="M 0,0 -12.144,-34.013"
             style="fill:none;stroke:#000000;stroke-width:15;stroke-linecap:round;stroke-linejoin:round;stroke-miterlimit:10;stroke-dasharray:none;stroke-opacity:1"
             id="path1274" /></g><g
           id="g1276"
           transform="translate(295.166,139.3447)"><path
             d="M 0,0 V 34.783"
             style="fill:none;stroke:#000000;stroke-width:15;stroke-linecap:round;stroke-linejoin:round;stroke-miterlimit:10;stroke-dasharray:none;stroke-opacity:1"
             id="path1278" /></g><g
           id="g1280"
           transform="translate(216.834,174.1279)"><path
             d="M 0,0 V -34.783"
             style="fill:none;stroke:#000000;stroke-width:15;stroke-linecap:round;stroke-linejoin:round;stroke-miterlimit:10;stroke-dasharray:none;stroke-opacity:1"
             id="path1282" /></g><g
           id="g1284"
           transform="translate(305.5186,139.3447)"><path
             d="m 0,0 h -99.037 c -6.295,0 -11.397,-5.103 -11.397,-11.397 v -19.795 c 0,-6.295 5.102,-11.397 11.397,-11.397 H 0 c 6.294,0 11.397,5.102 11.397,11.397 v 19.795 C 11.397,-5.103 6.294,0 0,0 Z"
             style="fill:none;stroke:#000000;stroke-width:15;stroke-linecap:round;stroke-linejoin:round;stroke-miterlimit:10;stroke-dasharray:none;stroke-opacity:1"
             id="path1286" /></g><g
           id="g1288"
           transform="translate(295.166,96.7554)"><path
             d="m 0,0 v -18.413 l 16.736,-4.105 c 4.98,-1.221 8.482,-5.686 8.482,-10.814 v -44.795 c 0,-6.149 -4.985,-11.135 -11.135,-11.135 H -92.416 c -6.149,0 -11.134,4.986 -11.134,11.135 v 44.795 c 0,5.128 3.502,9.593 8.482,10.814 l 16.736,4.105 V 0"
             style="fill:none;stroke:#000000;stroke-width:15;stroke-linecap:round;stroke-linejoin:round;stroke-miterlimit:10;stroke-dasharray:none;stroke-opacity:1"
             id="path1290" /></g><g
           id="g1292"
           transform="translate(191.6157,63.4233)"><path
             d="M 0,0 H -184.323"
             style="fill:none;stroke:#000000;stroke-width:15;stroke-linecap:round;stroke-linejoin:round;stroke-miterlimit:10;stroke-dasharray:none;stroke-opacity:1"
             id="path1294" /></g><g
           id="g1296"
           transform="translate(191.6157,18.6284)"><path
             d="M 0,0 H -184.323"
             style="fill:none;stroke:#000000;stroke-width:15;stroke-linecap:round;stroke-linejoin:round;stroke-miterlimit:10;stroke-dasharray:none;stroke-opacity:1"
             id="path1298" /></g><g
           id="g1300"
           transform="translate(439.4224,63.4238)"><path
             d="M 0,0 H 65.285"
             style="fill:none;stroke:#000000;stroke-width:15;stroke-linecap:round;stroke-linejoin:round;stroke-miterlimit:10;stroke-dasharray:none;stroke-opacity:1"
             id="path1302" /></g><g
           id="g1304"
           transform="translate(320.3843,63.4238)"><path
             d="M 0,0 H 87.076"
             style="fill:none;stroke:#000000;stroke-width:15;stroke-linecap:round;stroke-linejoin:round;stroke-miterlimit:10;stroke-dasharray:none;stroke-opacity:1"
             id="path1306" /></g><g
           id="g1308"
           transform="translate(320.3843,18.6284)"><path
             d="M 0,0 H 184.323"
             style="fill:none;stroke:#000000;stroke-width:15;stroke-linecap:round;stroke-linejoin:round;stroke-miterlimit:10;stroke-dasharray:none;stroke-opacity:1"
             id="path1310" /></g></g></g></g></svg>
