<svg width="20" height="20" viewBox="0 0 591 590" fill="none" xmlns="http://www.w3.org/2000/svg">
    <path d="M272.642 0.471008C211.835 5.56158 157.448 27.1783 109.777 65.1735C97.1577 75.2072 75.5357 96.8238 65.352 109.587C13.6954 174.068 -8.59074 255.149 2.99509 336.452C10.5222 389.35 31.4062 437.305 65.4996 480.096C75.5357 492.712 97.1577 514.328 109.777 524.362C152.43 558.373 200.545 579.326 253.456 586.851C283.343 591.13 316.698 590.614 345.7 585.523C395.364 576.744 440.526 556.307 480.376 524.509C493.142 514.328 514.764 492.712 524.8 480.096C559.263 436.936 580.663 387.063 587.674 333.87C597.267 261.568 580.221 189.562 539.412 129.212C529.081 113.94 518.011 100.66 503.695 86.2737C488.567 71.2232 475.579 60.4517 458.975 49.459C418.166 22.2352 374.48 6.52069 325.037 1.13495C315.001 0.0283203 282.605 -0.414368 272.642 0.471008ZM327.251 13.2344C353.743 16.4806 375.513 21.9401 399.865 31.5311C454.916 53.2216 503.769 93.9465 535.353 144.558C580.294 216.49 590.699 304.359 563.838 384.776C544.43 442.838 505.983 493.597 454.916 528.715C397.799 567.964 326.513 584.859 257.146 575.489C207.039 568.702 157.743 547.749 119.149 516.763C58.6366 468.218 22.0342 401.523 13.105 323.541C11.7029 310.704 11.8505 276.323 13.474 263.044C16.2044 241.353 19.7466 225.196 26.5357 204.76C51.4785 129.064 109.703 65.985 183.719 34.3347C209.474 23.2681 239.877 15.5215 266.739 13.0131C271.609 12.5704 276.775 12.054 278.177 11.9064C284.155 11.2424 318.322 12.2015 327.251 13.2344Z" fill="#0074FD"/>
    <path d="M270.798 76.0188C204.677 83.544 146.674 119.105 110.219 174.511C60.5553 249.985 62.2526 348.699 114.573 422.697C144.977 465.635 190.804 496.991 241.353 509.385C317.436 528.051 396.249 505.991 451.301 450.659C486.944 414.877 509.156 367.586 514.322 316.68C515.65 303.842 514.912 274.996 512.919 262.306C503.99 204.391 472.775 152.821 425.472 117.703C412.927 108.407 393.888 97.6354 379.498 91.5857C364.37 85.2409 341.567 79.1174 324.668 76.7565C312.713 75.0597 282.752 74.6908 270.798 76.0188ZM406.359 188.086C411.451 189.783 416.322 194.283 418.904 199.448L420.971 203.653V227.262C420.971 250.502 420.971 250.944 419.2 254.707C417.207 259.207 412.337 264.003 407.466 266.216L403.998 267.839H294.781H185.564L181.653 266.068C176.414 263.708 171.1 257.805 169.403 252.493C168.296 248.878 168.149 245.632 168.37 225.639L168.591 202.915L170.584 199.153C174.052 192.513 180.177 188.16 187.409 187.127C189.254 186.906 238.402 186.684 296.626 186.684C395.511 186.758 402.743 186.832 406.359 188.086ZM206.227 309.892C208.662 310.482 213.828 312.548 217.665 314.466C223.643 317.344 225.709 318.893 231.317 324.574C242.608 336.009 247.478 347.666 247.478 363.38C247.478 373.635 246.224 378.874 241.722 388.096C235.081 401.523 224.38 410.819 209.769 415.983C203.718 418.123 202.537 418.271 192.944 418.344C184.088 418.344 181.801 418.123 177.078 416.647C158.408 410.819 145.198 397.613 139.295 378.874C136.859 370.906 136.859 355.929 139.295 347.887C145.494 327.894 161.507 313.433 181.874 309.154C188.073 307.9 199.807 308.195 206.227 309.892ZM425.767 309.081C453.81 314.171 473.144 338.886 471.299 367.291C469.454 394.957 447.463 416.943 419.864 418.492C403.555 419.451 388.87 413.991 377.579 402.851C369.462 394.883 364.517 385.882 362.23 374.816C360.606 366.848 360.459 360.946 361.861 353.642C364.222 341.616 368.724 333.206 377.727 324.279C390.862 311.22 407.909 305.834 425.767 309.081ZM322.085 381.087C331.752 384.112 338.468 388.17 345.773 395.473C351.456 401.081 353.005 403.22 355.883 409.122C360.68 418.861 361.861 423.951 361.861 434.206C361.861 444.461 360.68 449.552 355.957 459.217C350.349 470.505 339.501 480.686 327.915 485.408C316.772 489.908 301.939 490.72 291.091 487.326C272.864 481.645 259.507 468.218 253.677 449.7C251.242 441.732 251.242 426.755 253.677 418.713C259.876 398.793 275.373 384.628 295.888 379.98C302.603 378.431 315.296 379.021 322.085 381.087Z" fill="#0074FD"/>
    <path d="M198.847 208.153C192.649 211.326 189.549 217.376 189.033 227.04C188.295 241.648 195.01 251.239 205.932 251.239C215.968 251.239 222.536 243.714 223.421 231.172C224.085 220.548 220.396 211.695 213.828 208.522C209.843 206.604 202.168 206.383 198.847 208.153ZM209.474 216.269C212.13 218.187 213.237 221.802 213.237 228.516C213.237 238.697 211.393 242.386 206.227 242.386C201.061 242.386 199.216 238.697 199.216 228.516C199.216 219.81 201.725 215.088 206.227 215.088C207.039 215.088 208.515 215.605 209.474 216.269Z" fill="#0074FD"/>
    <path d="M257.883 208.006C251.906 210.662 248.511 217.523 248.069 227.631C247.478 241.648 253.013 250.059 263.418 251.092C271.167 251.829 277.661 247.698 280.391 240.32C285.114 227.852 281.424 212.728 272.79 208.522C269.027 206.678 261.426 206.457 257.883 208.006ZM268.51 216.269C271.167 218.187 272.273 221.802 272.273 228.516C272.273 238.697 270.429 242.386 265.263 242.386C260.097 242.386 258.252 238.697 258.252 228.516C258.252 219.81 260.761 215.089 265.263 215.089C266.075 215.089 267.551 215.605 268.51 216.269Z" fill="#0074FD"/>
    <path d="M316.92 208.006C310.942 210.662 307.548 217.523 307.105 227.631C306.514 241.648 312.049 250.059 322.454 251.092C330.203 251.829 336.697 247.698 339.427 240.32C344.15 227.852 340.46 212.728 331.826 208.522C328.063 206.678 320.462 206.457 316.92 208.006ZM327.841 216.564C330.35 218.556 331.31 222.171 331.31 229.254C331.31 238.255 329.096 242.386 324.299 242.386C319.207 242.386 317.289 238.771 317.289 229.18C317.289 224.827 317.731 221.507 318.469 219.589C320.24 215.162 324.373 213.834 327.841 216.564Z" fill="#0074FD"/>
    <path d="M375.882 208.006C374.701 208.522 372.487 210.367 371.011 212.064C367.248 216.416 365.698 222.614 366.141 231.172C366.51 239.582 369.093 245.19 373.963 248.657C376.915 250.649 377.727 250.87 382.892 250.87C387.91 250.87 389.017 250.649 391.674 248.805C395.659 246.222 398.094 242.386 399.644 236.484C402.3 226.155 399.054 214.056 392.412 209.481C389.829 207.637 388.575 207.342 383.778 207.121C380.162 207.047 377.358 207.342 375.882 208.006ZM386.877 216.564C389.386 218.556 390.346 222.171 390.346 229.254C390.346 235.525 388.87 240.468 386.582 241.648C382.45 243.862 377.579 241.206 376.62 236.189C375.882 231.983 376.62 220.105 377.801 218.261C379.941 214.941 383.926 214.277 386.877 216.564Z" fill="#0074FD"/>
    <path d="M187.483 347.076L184.236 361.61L181.432 363.233C176.414 366.11 172.65 372.824 172.65 378.8C172.65 386.473 178.111 393.85 185.564 396.211C202.021 401.376 215.747 383.005 206.153 368.619C204.751 366.479 199.512 361.905 197.962 361.536C197.962 361.536 196.486 355.191 194.789 347.518C193.091 339.772 191.468 333.279 191.173 332.984C190.951 332.689 189.254 339.034 187.483 347.076Z" fill="#0074FD"/>
    <path d="M416.986 339.993C411.894 363.085 412.632 360.946 408.721 363.749C406.802 365.151 404.293 367.881 403.112 369.799C401.341 372.824 401.046 374.152 401.046 378.874C401.046 383.595 401.341 384.923 403.112 387.948C412.041 403.072 434.549 398.498 437.206 381.013C438.165 374.668 434.401 366.848 428.793 363.38C425.546 361.388 425.841 362.274 421.266 341.247C420.38 336.968 419.421 333.279 419.126 332.984C418.904 332.615 417.945 335.788 416.986 339.993Z" fill="#0074FD"/>
    <path d="M303.267 419.82C300.242 433.395 299.947 434.354 298.028 435.313C295.076 436.862 290.353 442.617 289.394 445.863C286.664 454.864 291.46 464.971 300.02 468.586C306.514 471.316 316.329 468.808 320.904 463.275C327.841 454.864 325.996 442.691 316.92 436.272C315.075 434.944 313.451 433.395 313.304 432.805C313.082 432.141 311.754 425.943 310.204 419.082C308.728 412.147 307.252 406.245 306.957 405.95C306.736 405.655 305.038 411.926 303.267 419.82Z" fill="#0074FD"/>
</svg>
