<svg id="Layer_1" data-name="Layer 1" xmlns="http://www.w3.org/2000/svg" xmlns:xlink="http://www.w3.org/1999/xlink" viewBox="0 0 240.74952 174.16138"><defs><style>.cls-1,.cls-10,.cls-2,.cls-3,.cls-4,.cls-5,.cls-7,.cls-8,.cls-9{stroke:#231f20;stroke-miterlimit:10;stroke-width:5px;}.cls-1{fill:url(#Orange_Yellow);}.cls-2{fill:url(#Orange_Yellow-2);}.cls-3{fill:url(#Orange_Yellow-3);}.cls-4{fill:url(#Orange_Yellow-4);}.cls-5{fill:#fff;}.cls-6{fill:#231f20;}.cls-7{fill:url(#Orange_Yellow-5);}.cls-8{fill:url(#Orange_Yellow-6);}.cls-9{fill:url(#Orange_Yellow-7);}.cls-10{fill:url(#Orange_Yellow-8);}</style><linearGradient id="Orange_Yellow" x1="92.79835" y1="56.18666" x2="147.95118" y2="56.18666" gradientUnits="userSpaceOnUse"><stop offset="0" stop-color="#fff33b"/><stop offset="0.04011" stop-color="#fee72e"/><stop offset="0.11709" stop-color="#fed51b"/><stop offset="0.19641" stop-color="#fdca10"/><stop offset="0.2809" stop-color="#fdc70c"/><stop offset="0.66854" stop-color="#f3903f"/><stop offset="0.88764" stop-color="#ed683c"/><stop offset="1" stop-color="#e93e3a"/></linearGradient><linearGradient id="Orange_Yellow-2" x1="30.49259" y1="114.42625" x2="82.44543" y2="114.42625" xlink:href="#Orange_Yellow"/><linearGradient id="Orange_Yellow-3" x1="162.91585" y1="112.26154" x2="214.86869" y2="112.26154" xlink:href="#Orange_Yellow"/><linearGradient id="Orange_Yellow-4" x1="63.13963" y1="114.42625" x2="177.60989" y2="114.42625" xlink:href="#Orange_Yellow"/><linearGradient id="Orange_Yellow-5" x1="2.5" y1="112.70005" x2="30.49259" y2="112.70005" xlink:href="#Orange_Yellow"/><linearGradient id="Orange_Yellow-6" x1="210.25693" y1="110.86257" x2="238.24952" y2="110.86257" xlink:href="#Orange_Yellow"/><linearGradient id="Orange_Yellow-7" x1="106.56555" y1="31.66465" x2="131.84113" y2="31.66465" xlink:href="#Orange_Yellow"/><linearGradient id="Orange_Yellow-8" x1="56.56313" y1="12.61395" x2="184.1864" y2="12.61395" xlink:href="#Orange_Yellow"/></defs><rect class="cls-1" x="92.79835" y="40.58228" width="55.15283" height="31.20876"/><rect class="cls-2" x="30.49259" y="86.75571" width="51.95284" height="55.34106"/><rect class="cls-3" x="162.91585" y="84.59101" width="51.95284" height="55.34106"/><circle class="cls-4" cx="120.37476" cy="114.42625" r="57.23513"/><circle class="cls-5" cx="120.37476" cy="113.42625" r="15.39325"/><path class="cls-6" d="M120.37476,84.08514a5,5,0,1,0-5-5,5.05627,5.05627,0,0,0,5,5Z"/><path class="cls-6" d="M157.97469,119.42625a5,5,0,1,0-5-5,5.05629,5.05629,0,0,0,5,5Z"/><path class="cls-6" d="M83.6219,121.40271a5,5,0,1,0-5-5,5.05628,5.05628,0,0,0,5,5Z"/><path class="cls-6" d="M120.37476,156.74382a5,5,0,1,0-5-5,5.05627,5.05627,0,0,0,5,5Z"/><path class="cls-6" d="M95.43364,147.47325a5,5,0,1,0-5-5,5.05629,5.05629,0,0,0,5,5Z"/><path class="cls-6" d="M146.82177,146.06149a5,5,0,1,0-5-5,5.05628,5.05628,0,0,0,5,5Z"/><path class="cls-6" d="M92.04541,95.80276a5,5,0,1,0-5-5,5.05627,5.05627,0,0,0,5,5Z"/><path class="cls-6" d="M149.08059,93.8263a5,5,0,1,0-5-5,5.05629,5.05629,0,0,0,5,5Z"/><rect class="cls-7" x="2.5" y="63.16218" width="27.99259" height="99.07574" rx="13.99628"/><rect class="cls-8" x="210.25693" y="61.3247" width="27.99259" height="99.07574" rx="13.99628"/><rect class="cls-9" x="106.56555" y="22.7279" width="25.27558" height="17.87349"/><rect class="cls-10" x="56.56313" y="2.5" width="127.62327" height="20.2279" rx="10.11394"/></svg>