<svg id="Layer_1" data-name="Layer 1"
     xmlns="http://www.w3.org/2000/svg" xmlns:xlink="http://www.w3.org/1999/xlink" viewBox="0 0 240.74952 174.16138"><defs><style>.cls-1,.cls-10,.cls-2,.cls-3,.cls-4,.cls-5,.cls-7,.cls-8,.cls-9{stroke:#231f20;stroke-miterlimit:10;stroke-width:5px;}.cls-1{fill:url(#linear-gradient);}.cls-2{fill:url(#linear-gradient-2);}.cls-3{fill:url(#linear-gradient-3);}.cls-4{fill:url(#linear-gradient-4);}.cls-5{fill:url(#linear-gradient-5);}.cls-6{fill:#231f20;}.cls-7{fill:url(#linear-gradient-6);}.cls-8{fill:url(#linear-gradient-7);}.cls-9{fill:url(#linear-gradient-8);}.cls-10{fill:url(#linear-gradient-9);}</style><linearGradient id="linear-gradient" x1="92.79835" y1="56.18666" x2="147.95118" y2="56.18666" gradientUnits="userSpaceOnUse"><stop offset="0" stop-color="#fff"/><stop offset="0.00049" stop-color="#fefefd"/><stop offset="0.01687" stop-color="#dbeecc"/><stop offset="0.03367" stop-color="#bde0a2"/><stop offset="0.05062" stop-color="#a5d580"/><stop offset="0.06778" stop-color="#92cc65"/><stop offset="0.08521" stop-color="#85c652"/><stop offset="0.10311" stop-color="#7dc247"/><stop offset="0.12217" stop-color="#7ac143"/><stop offset="0.3213" stop-color="#74c15d"/><stop offset="0.54118" stop-color="#30b44a"/><stop offset="1" stop-color="#007f5a"/></linearGradient><linearGradient id="linear-gradient-2" x1="30.49259" y1="114.42625" x2="82.44543" y2="114.42625" xlink:href="#linear-gradient"/><linearGradient id="linear-gradient-3" x1="162.91585" y1="112.26154" x2="214.86869" y2="112.26154" xlink:href="#linear-gradient"/><linearGradient id="linear-gradient-4" x1="63.13963" y1="114.42625" x2="177.60989" y2="114.42625" xlink:href="#linear-gradient"/><linearGradient id="linear-gradient-5" x1="104.98152" y1="113.42625" x2="135.76801" y2="113.42625" xlink:href="#linear-gradient"/><linearGradient id="linear-gradient-6" x1="2.5" y1="112.70005" x2="30.49259" y2="112.70005" xlink:href="#linear-gradient"/><linearGradient id="linear-gradient-7" x1="210.25693" y1="110.86257" x2="238.24952" y2="110.86257" xlink:href="#linear-gradient"/><linearGradient id="linear-gradient-8" x1="106.56555" y1="31.66465" x2="131.84113" y2="31.66465" xlink:href="#linear-gradient"/><linearGradient id="linear-gradient-9" x1="56.56313" y1="12.61395" x2="184.1864" y2="12.61395" xlink:href="#linear-gradient"/></defs><rect class="cls-1" x="92.79835" y="40.58228" width="55.15283" height="31.20876"/><rect class="cls-2" x="30.49259" y="86.75571" width="51.95284" height="55.34106"/><rect class="cls-3" x="162.91585" y="84.59101" width="51.95284" height="55.34106"/><circle class="cls-4" cx="120.37476" cy="114.42625" r="57.23513"/><circle class="cls-5" cx="120.37476" cy="113.42625" r="15.39325"/><path class="cls-6" d="M120.37476,84.08514a5,5,0,1,0-5-5,5.05627,5.05627,0,0,0,5,5Z"/><path class="cls-6" d="M157.97469,119.42625a5,5,0,1,0-5-5,5.05629,5.05629,0,0,0,5,5Z"/><path class="cls-6" d="M83.6219,121.40271a5,5,0,1,0-5-5,5.05628,5.05628,0,0,0,5,5Z"/><path class="cls-6" d="M120.37476,156.74382a5,5,0,1,0-5-5,5.05627,5.05627,0,0,0,5,5Z"/><path class="cls-6" d="M95.43364,147.47325a5,5,0,1,0-5-5,5.05629,5.05629,0,0,0,5,5Z"/><path class="cls-6" d="M146.82177,146.06149a5,5,0,1,0-5-5,5.05628,5.05628,0,0,0,5,5Z"/><path class="cls-6" d="M92.04541,95.80276a5,5,0,1,0-5-5,5.05627,5.05627,0,0,0,5,5Z"/><path class="cls-6" d="M149.08059,93.8263a5,5,0,1,0-5-5,5.05629,5.05629,0,0,0,5,5Z"/><rect class="cls-7" x="2.5" y="63.16218" width="27.99259" height="99.07574" rx="13.99628"/><rect class="cls-8" x="210.25693" y="61.3247" width="27.99259" height="99.07574" rx="13.99628"/><rect class="cls-9" x="106.56555" y="22.7279" width="25.27558" height="17.87349"/><rect class="cls-10" x="56.56313" y="2.5" width="127.62327" height="20.2279" rx="10.11394"/></svg>