<svg width="20" height="21" viewBox="0 0 20 21" fill="none" xmlns="http://www.w3.org/2000/svg">
    <path d="M11.642 6.89844L16.7207 6.94885C17.0248 6.98606 17.3077 7.12397 17.5242 7.34062C17.7408 7.55727 17.8786 7.84019 17.9157 8.14427V17.328C17.9126 17.6462 17.7848 17.9504 17.5598 18.1754C17.3348 18.4004 17.0306 18.5282 16.7124 18.5314H4.86823C4.7155 18.5327 4.56399 18.504 4.42237 18.4468C4.28075 18.3896 4.15179 18.305 4.04286 18.198C3.93393 18.0909 3.84717 17.9634 3.78754 17.8228C3.7279 17.6822 3.69657 17.5312 3.69531 17.3784V17.3564L3.71156 12.213C4.37281 12.8118 5.16656 12.4751 5.23115 13.908V15.2643H9.64865L9.65281 12.2109C10.5142 11.6091 11.1379 10.725 11.4161 9.71177C11.6257 8.77094 11.1603 6.9026 11.642 6.89844Z" stroke="white" stroke-width="0.5" stroke-linecap="round" stroke-linejoin="round"/>
    <path d="M13.7531 8.03125H12.9865C12.968 8.03125 12.9531 8.04617 12.9531 8.06458V8.83125C12.9531 8.84966 12.968 8.86458 12.9865 8.86458H13.7531C13.7715 8.86458 13.7865 8.84966 13.7865 8.83125V8.06458C13.7865 8.04617 13.7715 8.03125 13.7531 8.03125Z" stroke="white" stroke-linecap="round" stroke-linejoin="round"/>
    <path d="M16.3117 8.05469H15.5451C15.5266 8.05469 15.5117 8.06961 15.5117 8.08802V8.85469C15.5117 8.8731 15.5266 8.88802 15.5451 8.88802H16.3117C16.3301 8.88802 16.3451 8.8731 16.3451 8.85469V8.08802C16.3451 8.06961 16.3301 8.05469 16.3117 8.05469Z" stroke="white" stroke-linecap="round" stroke-linejoin="round"/>
    <path d="M16.3117 16.5938H15.5451C15.5266 16.5938 15.5117 16.6087 15.5117 16.6271V17.3938C15.5117 17.4122 15.5266 17.4271 15.5451 17.4271H16.3117C16.3301 17.4271 16.3451 17.4122 16.3451 17.3938V16.6271C16.3451 16.6087 16.3301 16.5938 16.3117 16.5938Z" stroke="white" stroke-linecap="round" stroke-linejoin="round"/>
    <path d="M13.6555 16.6016H12.8888C12.8704 16.6016 12.8555 16.6165 12.8555 16.6349V17.4016C12.8555 17.42 12.8704 17.4349 12.8888 17.4349H13.6555C13.6739 17.4349 13.6888 17.42 13.6888 17.4016V16.6349C13.6888 16.6165 13.6739 16.6016 13.6555 16.6016Z" stroke="white" stroke-linecap="round" stroke-linejoin="round"/>
    <path d="M11.2219 16.625H10.4552C10.4368 16.625 10.4219 16.6399 10.4219 16.6583V17.425C10.4219 17.4434 10.4368 17.4583 10.4552 17.4583H11.2219C11.2403 17.4583 11.2552 17.4434 11.2552 17.425V16.6583C11.2552 16.6399 11.2403 16.625 11.2219 16.625Z" stroke="white" stroke-linecap="round" stroke-linejoin="round"/>
    <path d="M8.62813 16.5625H7.86146C7.84305 16.5625 7.82812 16.5774 7.82812 16.5958V17.3625C7.82812 17.3809 7.84305 17.3958 7.86146 17.3958H8.62813C8.64653 17.3958 8.66146 17.3809 8.66146 17.3625V16.5958C8.66146 16.5774 8.64653 16.5625 8.62813 16.5625Z" stroke="white" stroke-linecap="round" stroke-linejoin="round"/>
    <path d="M6.04609 16.5703H5.27943C5.26102 16.5703 5.24609 16.5852 5.24609 16.6036V17.3703C5.24609 17.3887 5.26102 17.4036 5.27943 17.4036H6.04609C6.0645 17.4036 6.07943 17.3887 6.07943 17.3703V16.6036C6.07943 16.5852 6.0645 16.5703 6.04609 16.5703Z" stroke="white" stroke-linecap="round" stroke-linejoin="round"/>
    <path d="M2.93884 4.66085C2.96926 4.54002 3.32384 4.16293 3.45884 4.16668C3.80172 4.24159 4.15007 4.28882 4.50051 4.30793C4.63593 4.2371 4.56134 3.53418 4.68634 3.47335C4.81301 3.3446 5.38343 3.12293 5.45009 3.20543C5.67593 3.41918 6.02426 3.8746 6.20593 3.8746C6.38301 3.86877 6.81259 3.20793 7.01176 3.24168C7.24263 3.26177 7.46528 3.33708 7.66093 3.46127C7.78176 3.57835 7.65259 4.31585 7.83843 4.37835C8.05593 4.44502 8.94676 4.12252 9.00301 4.19085C9.08384 4.27168 9.41218 4.58793 9.40801 4.69918C9.40801 4.87002 9.05551 5.54502 9.21259 5.60168C9.26093 5.73252 9.95843 5.93418 10.1155 6.04335C10.2568 6.16418 10.4543 6.42585 10.3918 6.60918C10.3793 6.82918 9.72884 7.31668 9.75676 7.49002C9.78301 7.66752 10.2988 8.08252 10.3009 8.21752C10.303 8.32835 10.2768 8.79793 10.1497 8.84252C10.0026 8.96335 9.15426 9.06002 9.16009 9.19293C9.11801 9.33418 9.47884 9.8321 9.39593 10.0234C9.34384 10.1946 9.15843 10.6342 9.01301 10.6604C8.85009 10.7063 8.16884 10.5171 8.06009 10.5917C7.86843 10.6988 7.74551 11.4442 7.66093 11.4708C7.50455 11.5716 7.31727 11.613 7.13301 11.5875C7.00384 11.5734 6.46384 11.0029 6.21218 11.0109C6.08509 11.0371 5.66801 11.5817 5.51884 11.5634C5.38554 11.585 5.24925 11.5798 5.11801 11.5479C4.98677 11.5161 4.86323 11.4583 4.75468 11.3779C4.60551 11.2571 4.71051 10.63 4.51301 10.4646C4.33176 10.3359 3.70676 10.735 3.55176 10.6259C3.26968 10.5192 2.98509 10.3438 2.99551 10.1746C2.98718 10.0134 3.30176 9.30793 3.15676 9.17877C3.00551 9.0421 2.35259 9.09252 2.32426 8.9471C2.21557 8.69047 2.13456 8.42299 2.08259 8.14918C2.05843 7.96168 2.82009 7.61293 2.82218 7.45377C2.81593 7.29877 2.13676 6.90168 2.12884 6.73668C2.11123 6.50047 2.15925 6.26399 2.26759 6.05335C2.38426 5.89585 3.02759 5.91793 3.17051 5.7771C3.26134 5.68418 2.83384 4.7896 2.93884 4.66252V4.66085Z" stroke="white" stroke-linecap="round" stroke-linejoin="round"/>
    <path d="M3.97115 7.68958C3.92449 7.59874 3.89615 6.27083 4.17865 6.27708C4.32034 6.29119 4.4561 6.34113 4.57317 6.42218C4.69023 6.50324 4.78475 6.61275 4.84782 6.74041C4.90183 7.06663 4.8591 7.40153 4.7249 7.70374C4.69429 7.77955 4.64138 7.84428 4.57318 7.88937C4.50497 7.93446 4.42469 7.95777 4.34294 7.95624C4.2612 7.9547 4.18185 7.92839 4.11538 7.88077C4.04892 7.83315 3.99848 7.76648 3.97074 7.68958M5.3374 5.24083C5.77348 5.11116 6.23135 5.07147 6.68324 5.12416C6.81032 5.20874 6.50824 5.94249 6.36074 6.05124C6.2299 6.18624 5.56907 6.02124 5.44574 5.94874C4.84949 5.60583 5.19615 5.39041 5.3374 5.24083ZM7.84615 5.71874C8.36199 6.18999 8.74324 7.03874 8.59199 7.11708C7.77365 7.37958 7.47532 6.81916 7.34449 6.17999C7.31407 5.91791 7.76157 5.63999 7.84865 5.71666L7.84615 5.71874ZM8.19282 8.69916C7.90463 9.0762 7.52991 9.37833 7.10032 9.57999C7.03094 9.44845 6.99218 9.30293 6.98691 9.15431C6.98164 9.00568 7.01001 8.85779 7.0699 8.72166C7.16069 8.57776 7.27999 8.45398 7.42044 8.35796C7.5609 8.26193 7.71953 8.19569 7.88657 8.16333C8.22115 8.07249 8.4224 8.41124 8.19282 8.69916ZM5.57907 9.72708C5.28449 9.72916 4.44407 9.16874 4.52282 9.04999C4.59457 8.91671 4.70392 8.80745 4.83726 8.73582C4.97061 8.66418 5.12207 8.63332 5.27282 8.64708C5.42601 8.66971 5.57269 8.72447 5.70324 8.80777C5.83378 8.89106 5.94525 9.00101 6.03032 9.13041C6.28032 9.42291 5.9899 9.72499 5.57907 9.72708Z" stroke="white" stroke-width="0.5" stroke-linecap="round" stroke-linejoin="round"/>
    <path d="M6.21667 7.92552C6.49166 7.92552 6.71458 7.7026 6.71458 7.4276C6.71458 7.15261 6.49166 6.92969 6.21667 6.92969C5.94167 6.92969 5.71875 7.15261 5.71875 7.4276C5.71875 7.7026 5.94167 7.92552 6.21667 7.92552Z" stroke="white" stroke-linecap="round" stroke-linejoin="round"/>
    <path d="M12.4154 9.90827H15.7329C15.8817 9.89571 16.0296 9.94212 16.1445 10.0375C16.2595 10.1329 16.3323 10.2697 16.3474 10.4183V14.8179C16.3322 14.9665 16.2593 15.1032 16.1442 15.1985C16.0292 15.2938 15.8813 15.3401 15.7324 15.3274H12.4154C12.2666 15.34 12.1188 15.2937 12.0039 15.1983C11.8889 15.103 11.816 14.9664 11.8008 14.8179V10.4179C11.816 10.2693 11.8889 10.1327 12.0039 10.0374C12.1188 9.94206 12.2666 9.8957 12.4154 9.90827Z" stroke="white" stroke-width="0.5" stroke-linecap="round" stroke-linejoin="round"/>
</svg>
