<svg width="15" height="16" viewBox="0 0 15 16" fill="none" xmlns="http://www.w3.org/2000/svg">
    <g clip-path="url(#clip0_12866_53644)">
        <path d="M7.5 0C8.08016 0 8.63656 0.381465 9.0468 1.06048C9.45703 1.73949 9.6875 2.66042 9.6875 3.62069C9.6875 4.58096 9.45703 5.50189 9.0468 6.1809C8.63656 6.85992 8.08016 7.24138 7.5 7.24138C6.91984 7.24138 6.36344 6.85992 5.9532 6.1809C5.54297 5.50189 5.3125 4.58096 5.3125 3.62069C5.3125 2.66042 5.54297 1.73949 5.9532 1.06048C6.36344 0.381465 6.91984 0 7.5 0ZM3.125 2.58621C3.475 2.58621 3.8 2.74138 4.08125 3.02069C3.9875 4.5 4.25 5.96897 4.7875 7.11724C4.475 8.11035 3.85 8.7931 3.125 8.7931C2.62772 8.7931 2.15081 8.46614 1.79917 7.88413C1.44754 7.30212 1.25 6.51274 1.25 5.68966C1.25 4.86657 1.44754 4.0772 1.79917 3.49519C2.15081 2.91318 2.62772 2.58621 3.125 2.58621ZM11.875 2.58621C12.3723 2.58621 12.8492 2.91318 13.2008 3.49519C13.5525 4.0772 13.75 4.86657 13.75 5.68966C13.75 6.51274 13.5525 7.30212 13.2008 7.88413C12.8492 8.46614 12.3723 8.7931 11.875 8.7931C11.15 8.7931 10.525 8.11035 10.2125 7.11724C10.7574 5.95285 11.0104 4.48572 10.9187 3.02069C11.2 2.74138 11.525 2.58621 11.875 2.58621ZM3.4375 13.1897C3.4375 11.0483 5.25625 9.31035 7.5 9.31035C9.74375 9.31035 11.5625 11.0483 11.5625 13.1897V15H3.4375V13.1897ZM0 15V13.4483C0 12.0103 1.18125 10.8 2.78125 10.4483C2.4125 11.1517 2.1875 12.1241 2.1875 13.1897V15H0ZM15 15H12.8125V13.1897C12.8125 12.1241 12.5875 11.1517 12.2188 10.4483C13.8188 10.8 15 12.0103 15 13.4483V15Z" fill="white"/>
    </g>
    <defs>
        <clipPath id="clip0_12866_53644">
            <rect width="15" height="15" fill="white" transform="translate(0 0.640625)"/>
        </clipPath>
    </defs>
</svg>
