<svg width="15" height="16" viewBox="0 0 15 16" fill="none" xmlns="http://www.w3.org/2000/svg">
    <mask id="path-1-inside-1_4391_23076" fill="white">
        <path d="M1.875 9.875V10.8125H4.02469L0.9375 13.8997L1.60031 14.5625L4.6875 11.4753V13.625H5.625V9.875H1.875ZM11.25 10.3438H12.1875V12.6875H11.25V10.3438ZM9.375 8H10.3125V12.6875H9.375V8ZM7.5 8.9375H8.4375V12.6875H7.5V8.9375Z"/>
    </mask>
    <path d="M1.875 9.875V10.8125H4.02469L0.9375 13.8997L1.60031 14.5625L4.6875 11.4753V13.625H5.625V9.875H1.875ZM11.25 10.3438H12.1875V12.6875H11.25V10.3438ZM9.375 8H10.3125V12.6875H9.375V8ZM7.5 8.9375H8.4375V12.6875H7.5V8.9375Z" fill="white"/>
    <path d="M1.875 9.875V7.875H-0.125V9.875H1.875ZM1.875 10.8125H-0.125V12.8125H1.875V10.8125ZM4.02469 10.8125L5.4389 12.2267L8.85311 8.8125H4.02469V10.8125ZM0.9375 13.8997L-0.476714 12.4855L-1.89093 13.8997L-0.476713 15.3139L0.9375 13.8997ZM1.60031 14.5625L0.186099 15.9767L1.60031 17.3909L3.01453 15.9767L1.60031 14.5625ZM4.6875 11.4753H6.6875V6.64688L3.27329 10.0611L4.6875 11.4753ZM4.6875 13.625H2.6875V15.625H4.6875V13.625ZM5.625 13.625V15.625H7.625V13.625H5.625ZM5.625 9.875H7.625V7.875H5.625V9.875ZM11.25 10.3438V8.34375H9.25V10.3438H11.25ZM12.1875 10.3438H14.1875V8.34375H12.1875V10.3438ZM12.1875 12.6875V14.6875H14.1875V12.6875H12.1875ZM11.25 12.6875H9.25V14.6875H11.25V12.6875ZM9.375 8V6H7.375V8H9.375ZM10.3125 8H12.3125V6H10.3125V8ZM10.3125 12.6875V14.6875H12.3125V12.6875H10.3125ZM9.375 12.6875H7.375V14.6875H9.375V12.6875ZM7.5 8.9375V6.9375H5.5V8.9375H7.5ZM8.4375 8.9375H10.4375V6.9375H8.4375V8.9375ZM8.4375 12.6875V14.6875H10.4375V12.6875H8.4375ZM7.5 12.6875H5.5V14.6875H7.5V12.6875ZM-0.125 9.875V10.8125H3.875V9.875H-0.125ZM1.875 12.8125H4.02469V8.8125H1.875V12.8125ZM2.61047 9.39829L-0.476714 12.4855L2.35171 15.3139L5.4389 12.2267L2.61047 9.39829ZM-0.476713 15.3139L0.186099 15.9767L3.01453 13.1483L2.35171 12.4855L-0.476713 15.3139ZM3.01453 15.9767L6.10171 12.8895L3.27329 10.0611L0.186099 13.1483L3.01453 15.9767ZM2.6875 11.4753V13.625H6.6875V11.4753H2.6875ZM4.6875 15.625H5.625V11.625H4.6875V15.625ZM7.625 13.625V9.875H3.625V13.625H7.625ZM5.625 7.875H1.875V11.875H5.625V7.875ZM11.25 12.3438H12.1875V8.34375H11.25V12.3438ZM10.1875 10.3438V12.6875H14.1875V10.3438H10.1875ZM12.1875 10.6875H11.25V14.6875H12.1875V10.6875ZM13.25 12.6875V10.3438H9.25V12.6875H13.25ZM9.375 10H10.3125V6H9.375V10ZM8.3125 8V12.6875H12.3125V8H8.3125ZM10.3125 10.6875H9.375V14.6875H10.3125V10.6875ZM11.375 12.6875V8H7.375V12.6875H11.375ZM7.5 10.9375H8.4375V6.9375H7.5V10.9375ZM6.4375 8.9375V12.6875H10.4375V8.9375H6.4375ZM8.4375 10.6875H7.5V14.6875H8.4375V10.6875ZM9.5 12.6875V8.9375H5.5V12.6875H9.5Z" fill="white" mask="url(#path-1-inside-1_4391_23076)"/>
    <mask id="path-3-inside-2_4391_23076" fill="white">
        <path d="M13.125 1.4375H1.875C1.62644 1.43775 1.38812 1.5366 1.21236 1.71236C1.0366 1.88812 0.937748 2.12644 0.9375 2.375V8H1.875V6.59375H13.1255L13.1259 13.625H7.5V14.5625H13.125C13.3735 14.5621 13.6118 14.4632 13.7875 14.2875C13.9632 14.1118 14.0621 13.8735 14.0625 13.625V2.375C14.0623 2.12644 13.9634 1.88812 13.7876 1.71236C13.6119 1.5366 13.3736 1.43775 13.125 1.4375ZM5.625 5.65625H1.875V2.375H5.625V5.65625ZM6.5625 5.65625V2.375H13.125V5.65625H6.5625Z"/>
    </mask>
    <path d="M13.125 1.4375H1.875C1.62644 1.43775 1.38812 1.5366 1.21236 1.71236C1.0366 1.88812 0.937748 2.12644 0.9375 2.375V8H1.875V6.59375H13.1255L13.1259 13.625H7.5V14.5625H13.125C13.3735 14.5621 13.6118 14.4632 13.7875 14.2875C13.9632 14.1118 14.0621 13.8735 14.0625 13.625V2.375C14.0623 2.12644 13.9634 1.88812 13.7876 1.71236C13.6119 1.5366 13.3736 1.43775 13.125 1.4375ZM5.625 5.65625H1.875V2.375H5.625V5.65625ZM6.5625 5.65625V2.375H13.125V5.65625H6.5625Z" fill="white"/>
    <path d="M13.125 1.4375L13.127 -0.5625H13.125V1.4375ZM1.875 1.4375V-0.562501L1.873 -0.562499L1.875 1.4375ZM0.9375 2.375L-1.0625 2.373V2.375H0.9375ZM0.9375 8H-1.0625V10H0.9375V8ZM1.875 8V10H3.875V8H1.875ZM1.875 6.59375V4.59375H-0.125V6.59375H1.875ZM13.1255 6.59375L15.1255 6.59362L15.1253 4.59375H13.1255V6.59375ZM13.1259 13.625V15.625H15.1261L15.1259 13.6249L13.1259 13.625ZM7.5 13.625V11.625H5.5V13.625H7.5ZM7.5 14.5625H5.5V16.5625H7.5V14.5625ZM13.125 14.5625V16.5625L13.128 16.5625L13.125 14.5625ZM14.0625 13.625L16.0625 13.628V13.625H14.0625ZM14.0625 2.375H16.0625L16.0625 2.373L14.0625 2.375ZM5.625 5.65625V7.65625H7.625V5.65625H5.625ZM1.875 5.65625H-0.125V7.65625H1.875V5.65625ZM1.875 2.375V0.375H-0.125V2.375H1.875ZM5.625 2.375H7.625V0.375H5.625V2.375ZM6.5625 5.65625H4.5625V7.65625H6.5625V5.65625ZM6.5625 2.375V0.375H4.5625V2.375H6.5625ZM13.125 2.375H15.125V0.375H13.125V2.375ZM13.125 5.65625V7.65625H15.125V5.65625H13.125ZM13.125 -0.5625H1.875V3.4375H13.125V-0.5625ZM1.873 -0.562499C1.0947 -0.561722 0.348493 -0.252197 -0.201852 0.298148L2.62658 3.12658C2.42775 3.3254 2.15817 3.43722 1.877 3.4375L1.873 -0.562499ZM-0.201852 0.298148C-0.752197 0.848493 -1.06172 1.5947 -1.0625 2.373L2.9375 2.377C2.93722 2.65817 2.8254 2.92775 2.62658 3.12658L-0.201852 0.298148ZM-1.0625 2.375V8H2.9375V2.375H-1.0625ZM0.9375 10H1.875V6H0.9375V10ZM3.875 8V6.59375H-0.125V8H3.875ZM1.875 8.59375H13.1255V4.59375H1.875V8.59375ZM11.1255 6.59388L11.1259 13.6251L15.1259 13.6249L15.1255 6.59362L11.1255 6.59388ZM13.1259 11.625H7.5V15.625H13.1259V11.625ZM5.5 13.625V14.5625H9.5V13.625H5.5ZM7.5 16.5625H13.125V12.5625H7.5V16.5625ZM13.128 16.5625C13.9059 16.5613 14.6516 16.2518 15.2017 15.7017L12.3733 12.8733C12.5719 12.6747 12.8411 12.5629 13.122 12.5625L13.128 16.5625ZM15.2017 15.7017C15.7518 15.1516 16.0613 14.4059 16.0625 13.628L12.0625 13.622C12.0629 13.3411 12.1747 13.0719 12.3733 12.8733L15.2017 15.7017ZM16.0625 13.625V2.375H12.0625V13.625H16.0625ZM16.0625 2.373C16.0617 1.5947 15.7522 0.848494 15.2019 0.298148L12.3734 3.12658C12.1746 2.92775 12.0628 2.65817 12.0625 2.377L16.0625 2.373ZM15.2019 0.298148C14.6515 -0.252198 13.9053 -0.561722 13.127 -0.562499L13.123 3.4375C12.8418 3.43722 12.5722 3.3254 12.3734 3.12658L15.2019 0.298148ZM5.625 3.65625H1.875V7.65625H5.625V3.65625ZM3.875 5.65625V2.375H-0.125V5.65625H3.875ZM1.875 4.375H5.625V0.375H1.875V4.375ZM3.625 2.375V5.65625H7.625V2.375H3.625ZM8.5625 5.65625V2.375H4.5625V5.65625H8.5625ZM6.5625 4.375H13.125V0.375H6.5625V4.375ZM11.125 2.375V5.65625H15.125V2.375H11.125ZM13.125 3.65625H6.5625V7.65625H13.125V3.65625Z" fill="white" mask="url(#path-3-inside-2_4391_23076)"/>
</svg>
