<svg width="15" height="15" viewBox="0 0 15 15" fill="none" xmlns="http://www.w3.org/2000/svg">
    <path d="M10.7812 12.1816C11.3496 12.1816 11.8948 11.9558 12.2967 11.5539M10.7812 12.1816C10.2129 12.1816 9.66775 11.9558 9.26583 11.5539M10.7812 12.1816V13.7884M12.2967 11.5539C12.6986 11.1519 12.9244 10.6068 12.9244 10.0384M12.2967 11.5539L13.4331 12.6903M12.9244 10.0384C12.9244 9.47005 12.6986 8.92493 12.2967 8.52302M12.9244 10.0384H14.5312M12.2967 8.52302C11.8948 8.12111 11.3496 7.89531 10.7812 7.89531M12.2967 8.52302L13.4331 7.38719M10.7812 7.89531C10.2129 7.89531 9.66775 8.12111 9.26583 8.52302M10.7812 7.89531V6.28906M9.26583 8.52302C8.86392 8.92493 8.63813 9.47005 8.63813 10.0384M9.26583 8.52302L8.12937 7.38719M8.63813 10.0384C8.63813 10.6068 8.86392 11.1519 9.26583 11.5539M8.63813 10.0384L7.03125 10.0391M9.26583 11.5539L8.12937 12.6903M10.4244 6.28906H11.1381M13.1806 7.13469L13.6856 7.63969M14.5312 9.68156V10.3959M13.6856 12.4378L13.1806 12.9428M11.1381 13.7884L10.4244 13.7891M8.38188 12.9428L7.87687 12.4378M7.03125 10.3959V9.68156M7.87687 7.63969L8.38188 7.13469M11.4062 0.820312L12.8125 2.22656M12.8125 2.22656L11.4062 3.63281M12.8125 2.22656L9.0625 2.22594M2.8125 3.86719C3.02795 3.86719 3.24129 3.82475 3.44034 3.7423C3.63939 3.65985 3.82025 3.53901 3.9726 3.38666C4.12494 3.23431 4.24579 3.05345 4.32824 2.8544C4.41069 2.65535 4.45312 2.44201 4.45312 2.22656C4.45312 2.01111 4.41069 1.79777 4.32824 1.59872C4.24579 1.39967 4.12494 1.21881 3.9726 1.06647C3.82025 0.914119 3.63939 0.793272 3.44034 0.710823C3.24129 0.628373 3.02795 0.585937 2.8125 0.585938C2.37738 0.585938 1.96008 0.758789 1.6524 1.06647C1.34473 1.37414 1.17188 1.79144 1.17188 2.22656C1.17188 2.66168 1.34473 3.07898 1.6524 3.38666C1.96008 3.69434 2.37738 3.86719 2.8125 3.86719ZM1.40625 13.0072C1.40625 13.3801 1.55441 13.7378 1.81813 14.0016C2.08185 14.2653 2.43954 14.4134 2.8125 14.4134C3.18546 14.4134 3.54315 14.2653 3.80687 14.0016C4.07059 13.7378 4.21875 13.3801 4.21875 13.0072V10.6634C4.46739 10.6634 4.70585 10.5647 4.88166 10.3888C5.05748 10.213 5.15625 9.97458 5.15625 9.72594V6.91344C5.15625 6.41616 4.95871 5.93924 4.60708 5.58761C4.25544 5.23598 3.77853 5.03844 3.28125 5.03844H2.34375C1.84647 5.03844 1.36956 5.23598 1.01792 5.58761C0.666294 5.93924 0.46875 6.41616 0.46875 6.91344V9.72594C0.46875 9.97458 0.567522 10.213 0.743337 10.3888C0.919153 10.5647 1.15761 10.6634 1.40625 10.6634V13.0072Z" stroke="white" stroke-linecap="round" stroke-linejoin="round"/>
</svg>
